 <svg  version="1.0" xmlns="http://www.w3.org/2000/svg"  width="300.000000pt" height="188.000000pt" viewBox="0 0 300.000000 188.000000"  preserveAspectRatio="xMidYMid meet">  <g transform="translate(0.000000,188.000000) scale(0.100000,-0.100000)" fill="#130101" stroke="none"> <path d="M1358 1819 c-86 -12 -234 -65 -309 -109 -155 -92 -261 -206 -340 -365 -72 -146 -91 -229 -92 -401 0 -77 3 -146 7 -153 6 -9 14 -7 32 10 23 21 24 29 24 139 0 471 353 825 820 822 141 0 237 -23 365 -86 209 -103 351 -272 422 -501 26 -87 27 -97 26 -297 -2 -164 1 -209 12 -218 11 -9 17 3 32 67 13 58 18 116 17 228 0 133 -4 160 -28 240 -129 427 -545 689 -988 624z"/> <path d="M1572 1675 c-11 -13 -34 -58 -53 -100 -31 -71 -34 -75 -65 -75 -18 0 -44 -4 -58 -10 -31 -12 -35 3 -4 17 20 9 18 13 -52 86 -40 42 -79 77 -86 77 -22 0 -27 -45 -20 -158 l7 -105 -42 -43 c-41 -42 -42 -44 -36 -98 l6 -56 -95 -88 c-52 -49 -94 -93 -94 -98 0 -19 135 -154 165 -165 17 -6 49 -8 73 -4 l42 6 0 -54 c0 -30 -6 -75 -14 -100 -8 -26 -11 -47 -8 -47 4 0 20 14 35 32 20 23 27 27 22 13 -28 -82 -31 -202 -8 -276 l17 -54 7 68 c11 101 19 94 19 -16 0 -52 3 -104 6 -114 10 -32 -24 15 -59 82 -29 55 -32 68 -32 152 0 89 0 91 -19 75 -18 -16 -19 -16 -12 18 4 19 10 71 13 116 l6 80 -37 -4 c-20 -2 -50 1 -66 8 -30 12 -134 117 -167 167 l-17 26 84 78 85 77 -31 39 c-45 55 -60 54 -89 -9 -14 -29 -25 -63 -25 -74 0 -17 -9 -24 -45 -33 -56 -14 -62 -39 -7 -32 10 2 12 -6 7 -29 -4 -20 -2 -39 7 -53 8 -12 17 -30 21 -39 5 -15 3 -16 -21 -7 -35 14 -101 9 -130 -8 -33 -20 -40 -8 -18 30 11 18 28 48 38 69 18 33 28 43 81 81 16 11 12 18 -47 76 l-65 65 -12 -30 c-9 -22 -9 -49 0 -109 l11 -80 -30 -40 c-55 -73 -62 -92 -51 -133 l11 -37 -85 -85 c-47 -47 -85 -90 -85 -96 0 -18 61 -94 75 -94 8 0 18 -7 23 -15 13 -24 59 -32 126 -23 49 7 62 5 77 -8 22 -20 42 -76 37 -106 -3 -20 -9 -14 -46 37 -40 57 -45 61 -78 57 l-34 -4 21 -37 c28 -50 106 -141 166 -192 163 -142 351 -209 586 -209 130 0 205 13 324 56 l72 26 30 -21 c17 -12 39 -33 49 -46 l20 -25 25 39 c15 22 29 52 33 68 4 15 9 32 12 37 7 12 22 -15 23 -44 1 -25 1 -24 14 5 17 36 19 103 5 141 -10 26 -9 25 31 -10 44 -40 61 -42 35 -4 -9 12 -16 42 -16 66 l0 44 39 -7 c44 -7 111 16 111 38 0 8 10 17 23 21 22 5 67 72 67 98 0 8 -21 34 -46 58 -26 25 -64 67 -85 93 -33 42 -37 51 -26 68 17 27 24 24 19 -9 -2 -18 2 -33 12 -41 14 -12 16 -6 16 58 0 69 -2 75 -44 134 l-43 62 4 105 c4 86 2 109 -11 125 -16 19 -18 18 -86 -55 -66 -71 -68 -76 -50 -89 32 -22 23 -30 -17 -15 -21 7 -47 13 -58 14 -14 0 -25 11 -33 33 -15 41 -78 117 -98 117 -28 0 -86 -111 -114 -215 -8 -29 -21 -47 -50 -67 -37 -26 -134 -138 -125 -146 2 -2 14 3 27 12 48 34 38 13 -30 -58 -39 -41 -78 -89 -87 -106 -9 -18 -19 -30 -21 -27 -8 7 23 77 49 111 13 17 35 56 50 87 16 34 52 80 91 117 82 79 91 102 62 172 -13 33 -28 54 -39 56 -10 1 -35 21 -55 44 -28 32 -45 42 -71 43 -28 2 -37 -3 -50 -27 -10 -17 -28 -33 -42 -36 -31 -9 -146 -6 -155 3 -14 14 8 21 34 11 48 -18 90 9 135 85 17 29 17 30 -7 58 -23 26 -29 28 -91 26 -54 -1 -71 -5 -90 -23 -14 -13 -31 -20 -40 -16 -11 4 -17 -2 -22 -24 -6 -34 -23 -51 -23 -23 1 25 56 109 113 173 44 49 49 52 71 40 28 -14 99 -6 134 17 13 8 26 12 30 9 3 -3 0 -6 -6 -6 -23 0 -13 -60 13 -83 82 -74 103 -87 138 -87 28 0 31 8 27 59 -2 25 1 24 53 -12 19 -13 26 -25 22 -36 -3 -10 4 -30 16 -45 l22 -28 -26 -26 -26 -26 -23 21 c-24 21 -58 37 -58 26 0 -3 16 -23 35 -44 19 -22 35 -45 35 -51 0 -7 -20 10 -45 37 -42 48 -58 49 -34 2 7 -12 13 -28 13 -37 2 -19 38 -90 45 -90 3 0 14 19 24 43 21 53 73 117 94 117 9 0 32 -17 51 -37 l36 -38 -25 44 c-13 24 -46 64 -74 88 -48 44 -46 48 13 26 43 -17 -35 66 -100 104 -17 11 -29 28 -33 52 -14 73 -99 231 -125 231 -5 0 -17 -11 -28 -25z m64 -102 c19 -41 29 -80 32 -130 3 -44 10 -77 18 -84 8 -6 14 -16 14 -21 0 -10 -23 2 -58 30 -22 17 -22 20 -11 64 11 39 10 55 -5 112 -18 66 -36 79 -36 27 0 -25 -32 -61 -55 -61 -3 0 8 27 25 60 17 33 34 60 39 60 5 0 22 -26 37 -57z m-340 -112 c-9 -8 -17 -13 -20 -10 -2 2 -6 33 -10 69 l-6 65 26 -54 c22 -49 23 -56 10 -70z m290 -38 c-2 -2 -13 0 -25 6 l-20 11 22 38 22 37 3 -44 c2 -23 1 -45 -2 -48z m-276 -122 c-16 -31 -12 -34 16 -12 30 23 70 27 109 9 38 -17 31 -23 -35 -24 -57 -1 -61 -3 -99 -45 -24 -26 -40 -38 -41 -29 0 28 21 89 36 105 21 21 27 19 14 -4z m100 -58 c-1 -18 -19 -34 -48 -42 -34 -10 -40 -7 -19 12 30 28 67 44 67 30z m-165 -49 l25 -25 -55 -25 c-59 -26 -79 -30 -73 -15 3 8 70 89 75 90 1 1 14 -10 28 -25z m-185 -3 c0 -3 -11 -14 -24 -23 l-24 -17 11 28 c6 17 16 27 24 24 7 -3 13 -8 13 -12z m506 -17 c27 -19 84 -100 84 -118 0 -3 -16 2 -35 10 -46 19 -49 18 -31 -8 26 -36 20 -43 -31 -40 l-48 4 28 -29 c25 -27 47 -78 47 -111 0 -9 -11 -4 -31 12 -17 14 -34 26 -38 26 -5 0 -11 -23 -14 -51 -7 -53 -99 -257 -103 -229 -2 8 -4 47 -6 87 -3 60 -1 70 10 60 8 -6 18 -20 22 -32 7 -16 9 -12 9 18 1 44 -20 89 -51 111 -22 16 -21 16 20 16 26 0 41 4 37 10 -10 17 -99 11 -166 -11 -40 -12 -76 -18 -96 -14 -48 9 -50 25 -3 25 22 0 59 9 80 20 22 11 56 24 77 28 20 4 38 13 41 20 7 21 -49 14 -107 -14 -68 -31 -128 -39 -160 -22 -32 17 -37 34 -12 41 23 6 41 59 23 65 -19 6 -14 22 7 22 10 0 44 12 76 26 57 27 94 28 178 8 22 -5 26 -3 21 9 -5 13 0 14 33 6 57 -13 76 -11 69 6 -6 18 -5 18 28 5 31 -11 32 -5 6 35 -35 53 -26 55 36 9z m-739 -81 c-10 -10 -16 0 -22 38 l-6 34 17 -32 c10 -18 14 -36 11 -40z m1043 37 c10 -6 11 -10 3 -10 -16 0 -41 -50 -36 -72 6 -23 -14 -23 -26 0 -6 12 -5 23 5 37 8 10 14 27 14 37 0 20 17 23 40 8z m305 -128 c-3 -3 -13 2 -22 11 -15 14 -15 21 -3 59 21 67 25 67 28 -1 2 -35 0 -66 -3 -69z m-269 21 c16 -41 16 -44 -2 -64 -18 -20 -18 -20 -30 13 -8 23 -8 35 0 40 7 5 7 17 -2 41 -27 75 5 47 34 -30z m-841 -12 c-22 -23 -41 0 -23 28 12 20 14 20 26 4 10 -14 9 -20 -3 -32z m615 10 c0 -21 -9 -37 -32 -55 -56 -43 -68 -3 -16 51 39 41 48 41 48 4z m148 -83 c9 -21 8 -29 -4 -39 -13 -10 -17 -10 -25 2 -10 17 -12 90 -2 116 6 14 9 11 14 -17 3 -19 11 -47 17 -62z m308 54 c16 -20 40 -54 52 -74 22 -36 22 -37 4 -67 l-19 -31 -28 30 c-32 33 -44 35 -95 17 -53 -19 -78 -35 -91 -58 -9 -18 -7 -25 10 -43 11 -11 32 -35 46 -53 l26 -31 -22 -7 c-57 -18 -94 -7 -86 27 5 18 -23 58 -40 58 -22 -1 -91 -50 -108 -77 -21 -34 -53 -47 -39 -15 4 9 8 31 8 47 1 23 -4 31 -20 33 -67 9 -159 -167 -109 -208 8 -7 15 -16 15 -21 0 -15 34 -49 48 -49 7 0 15 7 18 15 7 17 50 20 59 4 4 -5 9 -25 12 -42 7 -44 19 -64 43 -72 12 -4 20 -15 20 -28 0 -34 35 -84 79 -111 22 -14 42 -30 46 -36 10 -17 44 -11 55 10 6 12 9 58 6 115 -5 106 -4 107 63 84 37 -13 42 -47 11 -86 -11 -14 -20 -41 -20 -59 0 -18 -6 -37 -13 -41 -8 -4 -22 -21 -32 -38 -41 -66 -44 -67 -78 -39 -25 21 -39 25 -74 22 -34 -2 -42 0 -38 11 11 27 -91 171 -121 171 -16 0 -34 -30 -30 -51 5 -34 41 -92 74 -119 l36 -29 -25 -9 c-13 -5 -28 -11 -34 -12 -5 -1 -20 -6 -31 -11 -66 -25 -271 -32 -365 -12 -35 7 -77 16 -94 19 -16 2 -59 19 -95 36 -36 17 -68 31 -72 30 -3 -1 -12 5 -18 13 -7 8 -18 15 -24 15 -22 0 -156 117 -156 135 0 8 7 20 15 29 23 23 21 78 -5 126 -15 28 -5 40 36 40 19 0 49 7 65 16 29 14 34 14 85 -7 61 -26 84 -20 94 22 8 32 17 15 24 -46 13 -112 57 -209 106 -239 17 -9 30 -14 31 -9 0 4 4 -1 8 -12 7 -18 10 -16 26 15 9 19 35 59 57 88 21 29 37 56 34 60 -3 5 5 24 17 43 42 67 49 84 49 122 -1 32 8 46 56 98 46 50 56 67 55 95 -1 28 7 40 44 74 51 45 63 48 88 20 23 -25 45 -25 71 -1 11 10 29 21 40 25 39 13 67 46 66 77 -1 24 3 29 17 24 40 -13 101 -12 112 1 16 20 20 18 55 -24z m-1306 -81 c-14 -27 -7 -26 29 0 26 19 33 20 65 9 57 -18 53 -30 -11 -30 -59 0 -59 0 -87 -45 -16 -25 -31 -45 -34 -45 -9 0 10 96 25 118 18 29 29 22 13 -7z m214 -49 c21 -24 14 -60 -12 -58 -9 0 -38 -5 -64 -13 -26 -7 -55 -10 -64 -7 -14 6 -12 11 16 36 19 17 30 30 26 30 -4 0 5 11 21 24 30 26 44 24 77 -12z m-147 -17 c-25 -23 -47 -32 -47 -21 0 18 14 34 26 29 8 -3 14 0 14 6 0 6 8 11 18 11 13 -1 11 -6 -11 -25z m468 2 c13 -21 13 -28 1 -53 -33 -70 -2 -193 46 -178 32 10 30 -20 -8 -91 -36 -71 -47 -88 -44 -70 5 24 -2 39 -28 64 -29 26 -29 27 -19 93 8 56 7 74 -6 105 -12 31 -18 119 -9 148 5 15 53 2 67 -18z m743 -7 c22 -21 46 -89 40 -118 -2 -10 -12 -2 -31 27 l-28 43 -60 -4 c-32 -1 -59 0 -59 3 0 13 82 40 101 34 21 -7 25 5 7 23 -21 21 7 13 30 -8z m146 -41 c-3 -5 -14 -9 -25 -9 -15 0 -19 7 -19 32 l0 31 25 -23 c13 -12 22 -27 19 -31z m-1479 1 c10 -12 25 -18 32 -16 24 10 13 -11 -12 -22 -30 -14 -107 -16 -87 -3 8 4 13 10 11 12 -3 6 25 49 32 49 3 0 14 -9 24 -20z m343 -10 c35 -25 72 -74 72 -95 0 -3 -27 -5 -60 -5 -33 0 -60 -2 -60 -5 0 -3 16 -19 35 -37 19 -18 37 -46 41 -61 l6 -28 -36 25 c-32 21 -112 46 -149 46 -7 0 2 -11 18 -24 l30 -24 -45 5 c-33 4 -67 -2 -123 -21 -43 -14 -94 -25 -115 -25 l-37 1 35 7 c19 4 57 19 85 34 27 15 60 27 73 27 15 0 22 5 19 13 -7 19 -64 10 -111 -18 -22 -13 -60 -27 -82 -31 -59 -9 -116 25 -64 39 20 5 29 47 10 47 -5 0 -10 5 -10 10 0 6 5 10 11 10 6 0 23 9 37 21 20 15 35 19 59 14 22 -4 41 -1 55 10 16 11 47 15 107 15 78 0 83 1 65 16 -18 14 -15 15 31 9 28 -4 69 -15 93 -25 41 -18 42 -18 32 0 -5 10 -27 32 -47 49 -48 40 -29 40 25 1z m929 -36 c3 -8 11 -13 18 -11 6 3 17 -4 23 -14 10 -16 9 -19 -6 -19 -24 0 -62 28 -62 46 0 19 19 18 27 -2z m153 2 c0 -7 11 -34 24 -59 l25 -45 -41 18 c-31 14 -45 16 -58 8 -20 -13 -54 -3 -45 12 4 6 15 8 25 5 20 -6 60 41 53 63 -3 6 0 12 6 12 6 0 11 -6 11 -14z m-471 -54 c-26 -28 -59 -77 -59 -87 0 -3 10 1 22 9 30 22 41 20 28 -4 -6 -11 -17 -48 -24 -82 l-14 -63 -1 54 c-1 53 -1 54 -21 36 -25 -23 -26 -8 -4 59 16 47 79 125 91 112 4 -3 -5 -19 -18 -34z m161 -4 l-31 -43 36 -3 c29 -3 35 -7 31 -19 -6 -13 0 -15 36 -9 123 20 128 19 158 -3 39 -28 44 -27 37 9 -4 17 -4 30 -1 30 3 0 31 -19 62 -42 31 -23 59 -43 61 -45 2 -1 -2 -10 -9 -18 -18 -21 2 -65 30 -65 26 0 26 -16 -1 -31 -32 -16 -99 -4 -173 31 -36 17 -70 28 -79 24 -20 -7 -23 -24 -4 -24 7 0 31 -10 52 -21 22 -12 67 -30 100 -40 56 -16 57 -18 24 -18 -20 -1 -67 10 -103 24 -92 35 -136 33 -164 -5 -25 -33 -28 -44 -9 -37 55 20 52 25 53 -88 1 -58 0 -105 -2 -105 -2 0 -17 27 -34 60 -17 33 -33 60 -36 60 -3 0 -2 -16 2 -35 9 -50 -3 -43 -31 18 -27 56 -32 106 -14 139 6 11 9 22 6 24 -7 7 -58 -38 -67 -60 -7 -16 -9 -11 -9 24 -1 28 6 57 19 78 l20 32 -31 0 c-17 0 -39 -5 -51 -11 -11 -6 -21 -9 -24 -7 -9 10 36 75 66 96 l33 22 -28 0 c-28 0 -28 0 -9 22 17 19 102 78 112 78 2 0 -10 -19 -28 -42z m-382 -110 c-38 -59 -98 -168 -98 -177 0 -6 -4 -11 -10 -11 -5 0 -10 -7 -10 -15 0 -8 -5 -15 -11 -15 -5 0 -7 5 -4 10 3 6 0 10 -7 11 -7 0 -5 4 5 8 10 4 29 33 42 64 23 58 83 146 99 147 4 0 2 -10 -6 -22z m840 -51 c3 -23 0 -28 -15 -25 -11 2 -19 14 -21 31 -3 23 0 28 15 25 11 -2 19 -14 21 -31z m-574 -280 c31 -43 56 -81 56 -85 0 -11 -71 62 -90 93 -17 29 -38 85 -27 75 3 -3 30 -40 61 -83z"/> <path d="M994 418 c4 -13 12 -44 18 -70 16 -66 34 -65 28 2 -2 24 -36 90 -47 90 -3 0 -2 -10 1 -22z"/> <path d="M1571 398 c6 -24 23 -70 39 -103 l29 -60 -2 40 c-1 22 -10 57 -19 77 -10 20 -18 41 -18 46 0 5 -9 17 -19 26 -19 17 -19 16 -10 -26z"/> <path d="M967 424 c-23 -23 5 -125 38 -138 13 -4 14 -2 5 14 -6 10 -16 44 -23 75 -7 31 -16 53 -20 49z"/> <path d="M1535 417 c-18 -44 16 -151 58 -177 29 -18 32 -5 6 32 -13 18 -31 62 -40 98 -12 47 -19 60 -24 47z"/> <path d="M1423 334 c-58 -87 -53 -113 9 -43 39 45 52 74 46 105 -2 12 -20 -8 -55 -62z"/> <path d="M1100 324 c0 -12 55 -104 63 -104 24 0 -11 83 -43 100 -11 6 -20 8 -20 4z"/> <path d="M1074 289 c6 -43 44 -89 73 -89 9 0 7 7 -7 22 -11 12 -28 39 -37 60 -20 46 -36 50 -29 7z"/> </g> </svg> 